<svg width="26" height="26" viewBox="0 0 26 26" fill="none" xmlns="http://www.w3.org/2000/svg">
<path d="M21.5 23H4.5C3.67 23 3 22.33 3 21.5V4.5C3 3.67 3.67 3 4.5 3H8.48C9.31 3 9.98 3.67 9.98 4.5C9.98 5.33 9.31 6 8.48 6H6V20H20V17.52C20 16.69 20.67 16.02 21.5 16.02C22.33 16.02 23 16.69 23 17.52V21.5C23 22.33 22.33 23 21.5 23Z" fill="white"/>
<path d="M13.0298 14.4601C12.6498 14.4601 12.2598 14.3101 11.9698 14.0201C11.3798 13.4301 11.3798 12.4801 11.9698 11.9001L19.3698 4.50012C19.9598 3.91012 20.9098 3.91012 21.4898 4.50012C22.0798 5.09012 22.0798 6.04012 21.4898 6.62012L14.0898 14.0201C13.7998 14.3101 13.4098 14.4601 13.0298 14.4601Z" fill="white"/>
<path d="M21.5005 13.02C20.6705 13.02 20.0005 12.35 20.0005 11.52V6H14.4805C13.6505 6 12.9805 5.33 12.9805 4.5C12.9805 3.67 13.6505 3 14.4805 3H21.5005C22.3305 3 23.0005 3.67 23.0005 4.5V11.52C23.0005 12.35 22.3305 13.02 21.5005 13.02Z" fill="white"/>
</svg>
