<svg width="28" height="28" viewBox="0 0 28 28" fill="none" xmlns="http://www.w3.org/2000/svg">
<path d="M5.74901 12.4439L22.6332 12.4439C23.5069 12.4439 24.2122 13.1492 24.2122 14.0229C24.2122 14.8966 23.5069 15.6018 22.6332 15.6018L5.74901 15.6018C4.87533 15.6018 4.17007 14.8966 4.17007 14.0229C4.17007 13.1492 4.87533 12.4439 5.74901 12.4439Z" fill="white"/>
<path d="M12.197 4.90617C12.597 4.90617 13.0075 5.06406 13.3128 5.36933C13.9338 5.99038 13.9338 6.99038 13.3128 7.6009L6.88121 14.0325L13.3128 20.4641C13.9338 21.0851 13.9338 22.0851 13.3128 22.6956C12.6917 23.3062 11.6917 23.3167 11.0812 22.6956L3.53385 15.1483C2.91279 14.5272 2.91279 13.5272 3.53385 12.9167L11.0812 5.36932C11.3865 5.06406 11.797 4.90617 12.197 4.90617Z" fill="white"/>
</svg>
