<svg width="20" height="20" viewBox="0 0 20 20" fill="none" xmlns="http://www.w3.org/2000/svg">
<path d="M15.5899 10.634H3.41582C2.78586 10.634 2.27734 10.1315 2.27734 9.50903C2.27734 8.88653 2.78586 8.38403 3.41582 8.38403H15.5899C16.2198 8.38403 16.7284 8.88653 16.7284 9.50903C16.7284 10.1315 16.2198 10.634 15.5899 10.634Z" fill="white"/>
<path d="M10.9372 16.0041C10.6488 16.0041 10.3528 15.8916 10.1327 15.6741C9.68493 15.2316 9.68493 14.5191 10.1327 14.0841L14.7701 9.50157L10.1327 4.91907C9.68493 4.47657 9.68493 3.76407 10.1327 3.32907C10.5805 2.89407 11.3016 2.88657 11.7418 3.32907L17.1837 8.70657C17.6315 9.14907 17.6315 9.86157 17.1837 10.2966L11.7418 15.6741C11.5217 15.8916 11.2257 16.0041 10.9372 16.0041Z" fill="white"/>
</svg>
