<svg width="136" height="38" viewBox="0 0 136 38" fill="none" xmlns="http://www.w3.org/2000/svg">
<path d="M59.2017 28.0356C58.9071 28.1767 58.5617 28.2976 58.1553 28.4085C57.7489 28.5194 57.2917 28.6202 56.7837 28.7109C56.2757 28.8016 55.7474 28.8419 55.1988 28.8419C54.0203 28.8419 52.9332 28.6706 51.9376 28.338C50.9419 28.0053 50.0784 27.5014 49.357 26.816C48.6357 26.1407 48.0667 25.3041 47.6604 24.3164C47.254 23.3286 47.0508 22.2098 47.0508 20.96C47.0508 19.7102 47.254 18.5813 47.6604 17.6036C48.0667 16.6159 48.6458 15.7894 49.3773 15.104C50.119 14.4287 50.9927 13.9045 52.029 13.5518C53.0551 13.199 54.193 13.0176 55.4223 13.0176C56.4078 13.0176 57.3019 13.1184 58.1146 13.32C58.9274 13.5215 59.6488 13.7634 60.2685 14.0356C60.1466 14.2472 60.0551 14.5194 59.9739 14.8822C59.9027 15.235 59.8418 15.5374 59.791 15.7692L59.6589 15.8095C59.5065 15.6281 59.3033 15.4366 59.029 15.2148C58.7649 14.9931 58.4499 14.7814 58.0943 14.5698C57.7387 14.3581 57.3323 14.1868 56.8853 14.0457C56.4383 13.9045 55.9506 13.834 55.4122 13.834C54.5283 13.834 53.7155 13.9751 52.9637 14.2573C52.2119 14.5395 51.5515 14.9729 50.9927 15.5575C50.4339 16.1421 49.9971 16.8779 49.6821 17.775C49.3672 18.672 49.2148 19.7303 49.2148 20.96C49.2148 22.1896 49.3672 23.248 49.6821 24.145C49.9971 25.0421 50.4339 25.7778 50.9927 26.3624C51.5515 26.947 52.2119 27.3804 52.9637 27.6626C53.7155 27.9449 54.5283 28.086 55.4122 28.086C55.9506 28.086 56.4485 28.0154 56.8955 27.8844C57.3527 27.7534 57.7692 27.5921 58.1451 27.4107C58.521 27.2292 58.8665 27.0277 59.1712 26.816C59.476 26.6043 59.73 26.4128 59.9434 26.2516L60.0348 26.3423L59.8316 27.6526C59.6995 27.7735 59.4862 27.9045 59.1916 28.0356H59.2017Z" fill="#2F2725"/>
<path d="M64.9925 19.0852C65.663 18.5813 66.2828 18.2386 66.8517 18.0672C67.4207 17.8858 67.9998 17.8052 68.5992 17.8052C69.1376 17.8052 69.6253 17.8858 70.0723 18.037C70.5194 18.1882 70.8953 18.4099 71.2102 18.7022C71.5252 18.9945 71.769 19.3372 71.9519 19.7404C72.1347 20.1435 72.216 20.5971 72.216 21.0809C72.216 21.9276 72.2059 22.7641 72.1754 23.6007C72.1449 24.4373 72.1347 25.3243 72.1347 26.2515C72.1347 26.433 72.1347 26.6144 72.1449 26.816C72.1449 27.0176 72.1855 27.1889 72.2465 27.3502C72.3075 27.5014 72.3887 27.6324 72.5005 27.7332C72.6122 27.834 72.7748 27.8844 73.0085 27.8844C73.0796 27.8844 73.1609 27.8844 73.2421 27.8743C73.3234 27.8642 73.4047 27.8441 73.4758 27.7937V28.2775C73.3133 28.348 73.1101 28.4085 72.8662 28.4589C72.6224 28.5093 72.3481 28.5294 72.0535 28.5294C71.576 28.5294 71.2102 28.4085 70.9562 28.1666C70.7022 27.9247 70.5498 27.6122 70.5092 27.2191C69.9707 27.7533 69.4424 28.1464 68.9243 28.3984C68.4062 28.6504 67.7661 28.7713 67.0041 28.7713C66.6282 28.7713 66.2625 28.7209 65.9069 28.6202C65.5513 28.5194 65.2363 28.348 64.9519 28.1061C64.6776 27.8743 64.454 27.582 64.2813 27.2494C64.1086 26.9168 64.0273 26.5338 64.0273 26.1104C64.0273 25.2235 64.3118 24.5381 64.8706 24.0442C65.4294 23.5503 66.2015 23.2278 67.187 23.0665C67.9896 22.9355 68.6195 22.8145 69.0767 22.7238C69.5339 22.623 69.8691 22.5323 70.0825 22.4214C70.2958 22.3207 70.4279 22.1997 70.4686 22.0586C70.5092 21.9175 70.5397 21.7361 70.5397 21.5143C70.5397 21.1414 70.499 20.7886 70.4076 20.4459C70.3162 20.1032 70.1739 19.8109 69.9809 19.559C69.7879 19.307 69.5339 19.1054 69.2189 18.9542C68.904 18.803 68.5281 18.7224 68.081 18.7224C67.4816 18.7224 66.933 18.8534 66.4149 19.1255C65.8967 19.3876 65.5208 19.7605 65.2668 20.2343H65.023V19.0852H64.9925ZM70.5194 23.0363C70.2654 23.127 69.9707 23.1975 69.6355 23.258C69.3002 23.3185 68.9649 23.379 68.6195 23.4495C68.2741 23.5201 67.9388 23.6007 67.6035 23.7015C67.2683 23.8023 66.9736 23.9434 66.7095 24.1248C66.4453 24.3063 66.2421 24.528 66.0796 24.7901C65.9272 25.0521 65.8459 25.3948 65.8459 25.8081C65.8459 26.5035 66.0491 27.0276 66.4453 27.3804C66.8416 27.7332 67.2987 27.9146 67.7864 27.9146C68.3554 27.9146 68.8735 27.7634 69.3408 27.451C69.8082 27.1385 70.1739 26.7757 70.4279 26.3624L70.5194 23.0363Z" fill="#2F2725"/>
<path d="M82.3453 19.5992C82.132 19.5287 81.9084 19.4883 81.6849 19.4883C81.3293 19.4883 81.0042 19.569 80.7198 19.7302C80.4353 19.8915 80.2016 20.1133 80.0086 20.3854C79.8156 20.6575 79.6632 20.9801 79.5616 21.3631C79.46 21.7461 79.4092 22.1392 79.4092 22.5726V25.0117C79.4092 25.9995 79.4092 26.7554 79.4193 27.2796C79.4193 27.8037 79.4498 28.227 79.5006 28.5596C79.206 28.5294 78.9012 28.5193 78.6066 28.5193C78.2815 28.5193 77.9665 28.5294 77.6719 28.5596C77.7125 28.0557 77.743 27.3703 77.7531 26.5035C77.7531 25.6367 77.7633 24.5783 77.7633 23.3184V22.6129C77.7633 22.0384 77.7633 21.3732 77.7531 20.6172C77.7531 19.8613 77.7227 18.9945 77.6719 18.0269C77.8344 18.0571 77.997 18.0773 78.1392 18.1075C78.2815 18.1377 78.444 18.1377 78.6066 18.1377C78.7386 18.1377 78.8809 18.1277 79.0333 18.1075C79.1857 18.0873 79.3381 18.0571 79.5006 18.0269C79.4396 18.5611 79.4092 18.9844 79.399 19.2868C79.399 19.5992 79.3889 19.8915 79.3889 20.1737L79.4295 20.1939C80.3134 18.6014 81.2887 17.795 82.3758 17.795C82.5079 17.795 82.6298 17.795 82.7212 17.8152C82.8127 17.8354 82.9447 17.8656 83.087 17.9261C83.0158 18.1075 82.9651 18.3696 82.9549 18.7324C82.9346 19.0953 82.9346 19.4279 82.9346 19.7202L82.7822 19.831C82.7111 19.7403 82.5587 19.6597 82.3453 19.5891V19.5992Z" fill="#2F2725"/>
<path d="M87.0902 19.0852C87.7607 18.5813 88.3804 18.2386 88.9494 18.0672C89.5183 17.8858 90.0974 17.8052 90.6968 17.8052C91.2353 17.8052 91.723 17.8858 92.17 18.037C92.617 18.1882 92.9929 18.4099 93.3079 18.7022C93.6228 18.9945 93.8667 19.3372 94.0495 19.7404C94.2324 20.1435 94.3137 20.5971 94.3137 21.0809C94.3137 21.9276 94.3035 22.7641 94.273 23.6007C94.2426 24.4373 94.2324 25.3243 94.2324 26.2515C94.2324 26.433 94.2324 26.6144 94.2426 26.816C94.2426 27.0176 94.2832 27.1889 94.3442 27.3502C94.4051 27.5014 94.4864 27.6324 94.5981 27.7332C94.7099 27.834 94.8725 27.8844 95.1061 27.8844C95.1772 27.8844 95.2585 27.8844 95.3398 27.8743C95.4211 27.8642 95.5024 27.8441 95.5735 27.7937V28.2775C95.4109 28.348 95.2077 28.4085 94.9639 28.4589C94.7201 28.5093 94.4458 28.5294 94.1511 28.5294C93.6736 28.5294 93.3079 28.4085 93.0539 28.1666C92.7999 27.9247 92.6475 27.6122 92.6069 27.2191C92.0684 27.7533 91.5401 28.1464 91.022 28.3984C90.5038 28.6504 89.8638 28.7713 89.1018 28.7713C88.7259 28.7713 88.3601 28.7209 88.0045 28.6202C87.6489 28.5194 87.334 28.348 87.0495 28.1061C86.7752 27.8743 86.5517 27.582 86.379 27.2494C86.2063 26.9168 86.125 26.5338 86.125 26.1104C86.125 25.2235 86.4095 24.5381 86.9682 24.0442C87.527 23.5503 88.2992 23.2278 89.2847 23.0665C90.0873 22.9355 90.7172 22.8145 91.1743 22.7238C91.6315 22.623 91.9668 22.5323 92.1802 22.4214C92.3935 22.3207 92.5256 22.1997 92.5662 22.0586C92.6069 21.9175 92.6373 21.7361 92.6373 21.5143C92.6373 21.1414 92.5967 20.7886 92.5053 20.4459C92.4138 20.1032 92.2716 19.8109 92.0786 19.559C91.8855 19.307 91.6315 19.1054 91.3166 18.9542C91.0016 18.803 90.6257 18.7224 90.1787 18.7224C89.5793 18.7224 89.0307 18.8534 88.5125 19.1255C87.9944 19.3876 87.6185 19.7605 87.3645 20.2343H87.1206V19.0852H87.0902ZM92.6069 23.0363C92.3529 23.127 92.0582 23.1975 91.723 23.258C91.3877 23.3185 91.0524 23.379 90.707 23.4495C90.3616 23.5201 90.0263 23.6007 89.691 23.7015C89.3558 23.8023 89.0611 23.9434 88.797 24.1248C88.5328 24.3063 88.3296 24.528 88.1671 24.7901C88.0147 25.0521 87.9334 25.3948 87.9334 25.8081C87.9334 26.5035 88.1366 27.0276 88.5328 27.3804C88.9291 27.7332 89.3862 27.9146 89.8739 27.9146C90.4428 27.9146 90.961 27.7634 91.4283 27.451C91.8957 27.1385 92.2614 26.7757 92.5154 26.3624L92.6069 23.0363Z" fill="#2F2725"/>
<path d="M99.8297 20.073C99.8094 19.3372 99.7586 18.6619 99.6875 18.0269C100.104 18.0975 100.439 18.1378 100.693 18.1378C100.815 18.1378 100.947 18.1277 101.09 18.1076C101.232 18.0874 101.394 18.0572 101.598 18.0269C101.557 18.6216 101.526 19.2062 101.526 19.8009H101.567C102.359 18.4704 103.467 17.8052 104.899 17.8052C105.275 17.8052 105.641 17.8657 105.997 17.9765C106.352 18.0874 106.677 18.2386 106.972 18.4301C107.267 18.6216 107.51 18.8534 107.724 19.1255C107.937 19.3977 108.069 19.69 108.15 20.0024H108.191C108.547 19.2969 109.034 18.7526 109.654 18.3696C110.274 17.9866 110.985 17.8052 111.788 17.8052C112.275 17.8052 112.732 17.8757 113.149 18.0068C113.566 18.1378 113.931 18.3495 114.236 18.6317C114.541 18.9139 114.785 19.2767 114.947 19.7202C115.12 20.1637 115.201 20.6979 115.201 21.3127C115.201 21.5647 115.201 21.8369 115.181 22.1292C115.161 22.4214 115.15 22.7641 115.14 23.1572C115.12 23.5503 115.11 23.9938 115.1 24.4877C115.079 24.9816 115.079 25.5561 115.079 26.2112C115.079 26.6144 115.079 26.9974 115.09 27.3603C115.09 27.7332 115.12 28.1263 115.15 28.5597C114.988 28.5294 114.825 28.5194 114.663 28.5194H113.698C113.535 28.5194 113.373 28.5294 113.21 28.5597C113.251 28.1867 113.301 27.4409 113.352 26.3221C113.403 25.2033 113.434 23.631 113.434 21.6252C113.434 21.2523 113.393 20.9096 113.312 20.587C113.23 20.2645 113.098 19.9823 112.926 19.7404C112.743 19.5086 112.509 19.3171 112.214 19.1759C111.92 19.0348 111.544 18.9643 111.097 18.9643C110.558 18.9643 110.101 19.0651 109.735 19.2767C109.359 19.4884 109.075 19.7303 108.862 20.0125C108.74 20.1738 108.648 20.3351 108.587 20.4963C108.516 20.6576 108.465 20.9096 108.435 21.2422C108.404 21.5748 108.374 22.0384 108.354 22.6432C108.333 23.2379 108.333 24.0644 108.333 25.1126C108.333 25.7476 108.344 26.3322 108.364 26.8563C108.384 27.3804 108.415 27.9549 108.445 28.5798C108.1 28.5496 107.775 28.5395 107.46 28.5395C107.145 28.5395 106.82 28.5496 106.474 28.5798C106.545 27.7634 106.596 26.9369 106.627 26.1004C106.657 25.2638 106.667 24.4272 106.667 23.6209C106.667 22.9254 106.667 22.3811 106.657 21.988C106.657 21.595 106.627 21.2825 106.596 21.0608C106.566 20.839 106.525 20.6475 106.474 20.4963C106.423 20.3451 106.352 20.1839 106.261 20.0125C106.098 19.7303 105.844 19.4884 105.489 19.2969C105.143 19.0953 104.777 18.9945 104.402 18.9945C103.416 18.9945 102.695 19.3171 102.238 19.952C101.78 20.587 101.547 21.4841 101.547 22.6331V24.5179C101.547 25.1831 101.557 25.8786 101.577 26.6144C101.598 27.3502 101.648 28.0053 101.719 28.6C101.374 28.5698 101.039 28.5597 100.714 28.5597C100.389 28.5597 100.053 28.5698 99.7078 28.6C99.7789 28.0053 99.8297 27.3502 99.8501 26.6144C99.8704 25.8786 99.8805 25.1831 99.8805 24.5179V22.2098C99.8805 21.5446 99.8704 20.8491 99.8501 20.1133L99.8297 20.073Z" fill="#2F2725"/>
<path d="M119.48 23.6309C119.48 21.8166 119.917 20.3854 120.791 19.3472C121.665 18.3091 122.935 17.795 124.601 17.795C125.393 17.795 126.074 17.916 126.643 18.1579C127.212 18.3998 127.7 18.7223 128.086 19.1356C128.472 19.5387 128.756 20.0225 128.949 20.5668C129.132 21.1111 129.224 21.6957 129.224 22.3206C129.224 22.4718 129.224 22.6129 129.213 22.754C129.213 22.8951 129.193 23.0362 129.183 23.1874C128.38 23.1773 127.578 23.1572 126.795 23.1471C126.003 23.137 125.211 23.1269 124.408 23.1269C123.92 23.1269 123.433 23.1269 122.945 23.1471C122.457 23.1673 121.97 23.1773 121.482 23.1874C121.472 23.258 121.462 23.3688 121.462 23.52V23.8123C121.462 24.3868 121.543 24.9311 121.716 25.4351C121.888 25.939 122.132 26.3724 122.467 26.7353C122.803 27.0981 123.199 27.3904 123.676 27.6021C124.154 27.8138 124.703 27.9246 125.332 27.9246C125.627 27.9246 125.932 27.8843 126.247 27.8037C126.562 27.723 126.867 27.6122 127.161 27.4711C127.456 27.33 127.74 27.1687 128.004 26.9671C128.269 26.7756 128.492 26.5639 128.685 26.3422L128.797 26.4128L128.665 27.5013C128.218 27.8541 127.659 28.1565 126.999 28.4084C126.338 28.6604 125.647 28.7814 124.936 28.7814C124.134 28.7814 123.402 28.6604 122.732 28.4185C122.071 28.1766 121.492 27.8238 121.015 27.3501C120.527 26.8865 120.161 26.3321 119.897 25.6971C119.633 25.0621 119.511 24.3768 119.511 23.6309H119.48ZM124.652 18.5107C124.103 18.5107 123.636 18.6316 123.25 18.8836C122.864 19.1356 122.559 19.448 122.315 19.831C122.071 20.204 121.878 20.6172 121.756 21.0708C121.634 21.5243 121.553 21.9477 121.523 22.3408C121.98 22.3609 122.467 22.371 122.965 22.3811C123.463 22.3912 123.951 22.4012 124.428 22.4012C124.906 22.4012 125.424 22.4012 125.922 22.3811C126.42 22.3609 126.917 22.3508 127.395 22.3408C127.395 21.9376 127.364 21.5243 127.293 21.0809C127.222 20.6374 127.09 20.2241 126.887 19.8411C126.684 19.4581 126.409 19.1356 126.044 18.8836C125.688 18.6316 125.221 18.5107 124.631 18.5107H124.652Z" fill="#2F2725"/>
<path d="M133.856 16.5856C133.856 15.9909 133.836 15.4063 133.826 14.8318C133.806 14.2573 133.795 13.7029 133.765 13.1788C133.734 12.6547 133.714 12.2112 133.684 11.8383C134.1 11.9088 134.435 11.9491 134.689 11.9491C134.943 11.9491 135.279 11.9088 135.695 11.8383C135.665 12.2112 135.644 12.6547 135.614 13.1788C135.583 13.7029 135.573 14.2573 135.553 14.8318C135.543 15.4063 135.522 15.9909 135.522 16.5856C135.522 17.1802 135.512 17.7245 135.512 18.2285V22.24C135.512 22.7439 135.512 23.2882 135.522 23.8829C135.522 24.4776 135.543 25.0622 135.553 25.6367C135.563 26.2112 135.583 26.7555 135.614 27.2796C135.634 27.7936 135.665 28.227 135.695 28.5697C135.35 28.5395 135.014 28.5294 134.689 28.5294C134.364 28.5294 134.029 28.5395 133.684 28.5697C133.714 28.227 133.745 27.8037 133.765 27.2796C133.785 26.7655 133.806 26.2112 133.826 25.6367C133.836 25.0622 133.856 24.4776 133.856 23.8829C133.856 23.2882 133.866 22.7439 133.866 22.24V18.2285C133.866 17.7245 133.866 17.1802 133.856 16.5856Z" fill="#2F2725"/>
<mask id="mask0_3741_523" style="mask-type:luminance" maskUnits="userSpaceOnUse" x="0" y="0" width="38" height="38">
<path d="M37.4494 18.9845C37.4494 29.235 29.1083 38.1652 18.7251 37.5403C7.82384 36.8852 0.112659 29.487 0.000903142 18.9845C-0.100693 8.73397 8.38262 0.428711 18.7251 0.428711C29.0677 0.428711 37.4494 8.73397 37.4494 18.9845Z" fill="white"/>
</mask>
<g mask="url(#mask0_3741_523)">
<path d="M37.4494 18.9845C37.4494 29.235 29.1083 38.1652 18.7251 37.5403C7.82384 36.8852 0.112659 29.487 0.000903142 18.9845C-0.100693 8.73397 8.38262 0.428711 18.7251 0.428711C29.0677 0.428711 37.4494 8.73397 37.4494 18.9845Z" fill="#FFF9B1"/>
<path d="M18.7385 21.857C20.3264 21.857 21.6136 20.58 21.6136 19.0046C21.6136 17.4293 20.3264 16.1522 18.7385 16.1522C17.1505 16.1522 15.8633 17.4293 15.8633 19.0046C15.8633 20.58 17.1505 21.857 18.7385 21.857Z" fill="#F6AB00"/>
<path d="M32.8593 6.81889C32.8593 6.81889 30.4312 5.55899 29.4863 7.75625C28.9885 8.93552 28.4399 10.1954 27.0378 10.2962C25.7374 10.3869 24.63 9.379 23.3194 9.6209C22.5574 9.76201 21.8971 10.2458 21.4297 10.8405C19.8346 12.8563 20.4442 15.7692 21.3891 17.9161C21.3891 17.9161 16.0857 17.9161 16.0756 17.9161C16.1264 17.8354 16.5429 16.5352 16.5734 16.384C16.7969 15.3459 16.7563 14.1465 16.3092 12.947C15.8927 11.8182 14.3688 12.1306 13.4137 12.5842C12.2454 13.1385 11.2701 14.1162 10.8332 15.3257C10.63 15.9002 10.5386 16.4848 10.183 17.009C9.21781 18.4503 7.29763 18.5108 5.86512 17.7548C4.44277 17.009 3.06106 17.3516 2.58356 17.5835C1.44568 18.158 0.775138 18.9946 0.053803 20.2746L-4.19293 18.9643L-4.30469 -3.85498H41.7693V6.55683L32.8593 6.81889Z" fill="#F6AB00"/>
<g style="mix-blend-mode:multiply">
<path d="M1.8896 28.9024C3.53547 34.1939 10.3018 38.3768 18.5413 38.1349C30.7837 37.7821 39.8867 29.5374 39.6327 25.4754C39.3584 21.0507 40.3032 17.7649 38.1494 19.4985C37.9665 19.6497 37.5805 19.4985 37.4179 20.1335C36.8185 22.4618 30.103 26.0298 18.6226 26.1507C0.599328 26.3422 -0.812863 20.1637 1.89976 28.9024H1.8896Z" fill="#F6AB00"/>
</g>
<g style="mix-blend-mode:multiply">
<path d="M0.751763 25.5259C1.45278 27.5014 5.77063 37.9132 18.3584 37.883C30.296 37.8527 34.8272 30.5554 36.8287 24.649C37.5703 22.4517 37.997 20.839 37.4078 20.1335C34.7968 16.9787 19.283 29.4467 10.3018 27.4107C6.91867 26.6447 -1.02618 20.5165 0.741603 25.536L0.751763 25.5259Z" fill="#F6AB00"/>
</g>
<g style="mix-blend-mode:multiply">
<path d="M2.08659 29.3661C2.87904 31.2912 7.16641 38.135 17.8239 38.135C28.4814 38.135 35.3798 30.5353 37.0053 24.2257C38.1432 19.8211 36.9037 30.2329 26.2564 29.991C4.58586 29.4871 -3.89745 14.8823 2.08659 29.3661Z" fill="#F6AB00"/>
</g>
</g>
</svg>
